<svg width="188" height="188" viewBox="0 0 188 188" fill="none" xmlns="http://www.w3.org/2000/svg">
<path fill-rule="evenodd" clip-rule="evenodd" d="M32.9196 98.4717C31.6083 98.4421 30.5827 98.5703 29.7253 98.9357C29.4785 99.0343 29.0845 99.0343 29.0548 99.3501C29.1831 99.4783 29.2025 99.6955 29.321 99.8733C29.5484 100.259 29.8341 100.594 30.1785 100.88L31.2338 101.64C31.8746 102.035 32.5941 102.262 33.2252 102.656C33.59 102.884 33.9452 103.179 34.2114 103.426C34.3887 103.554 34.5073 103.772 34.7337 103.85V103.801C34.6156 103.653 34.586 103.436 34.4674 103.278L33.9748 102.804C33.4914 102.164 32.923 101.611 32.2691 101.146C31.7463 100.781 30.5929 100.288 30.3758 99.6858L30.3461 99.6562C30.711 99.6265 31.1351 99.4881 31.4801 99.3894C32.0422 99.2413 32.545 99.2709 33.1265 99.1232L33.9155 98.8958V98.7481C33.6197 98.4518 33.403 98.0573 33.0974 97.7809C32.2588 97.0604 31.3421 96.3496 30.386 95.7574C29.8729 95.4319 29.2224 95.2147 28.6802 94.9383C28.483 94.8397 28.1575 94.7901 28.0389 94.6225C27.7436 94.2572 27.576 93.7835 27.3685 93.3593L26.0179 90.4973C25.722 89.8556 25.5447 89.2143 25.1799 88.622C24.8009 87.9769 24.3802 87.3603 23.9182 86.772C23.4557 86.1842 22.9557 85.6298 22.4184 85.1095C21.8811 84.5892 21.3112 84.1077 20.7088 83.6647C20.1064 83.2216 19.4767 82.8213 18.8204 82.4632C18.2092 82.1178 17.4892 81.9696 16.7201 81.7923L15.4876 81.7233C15.2214 81.6048 14.9653 81.2987 14.7287 81.1505C13.7921 80.5583 11.3765 79.2757 10.7848 80.9732C10.3412 82.0391 11.4455 83.0948 11.8201 83.6379C12.096 84.013 12.4609 84.4473 12.6581 84.8715C12.7762 85.1479 12.8058 85.4438 12.9244 85.7401L13.7819 87.9409C13.9602 88.2951 14.1642 88.6342 14.3935 88.9573C14.5218 89.1351 14.7584 89.224 14.8074 89.5199C14.5806 89.8458 14.5611 90.339 14.4329 90.7539C13.8411 92.6092 14.068 94.9189 14.9061 96.2806C15.1723 96.695 15.8918 97.5933 16.6317 97.2479C17.3712 96.9516 17.2035 96.0144 17.4202 95.1948C17.4698 94.9976 17.4401 94.8693 17.5388 94.7313V94.761L18.2092 96.1227C18.7218 96.9321 19.6094 97.7711 20.3488 98.3235C20.7428 98.6199 21.0586 99.1329 21.5517 99.3107V99.2612H21.4827C21.3841 99.113 21.2359 99.044 21.1076 98.9357C20.7948 98.6301 20.5091 98.3012 20.2502 97.9485C19.5525 97.0031 18.9379 96.0061 18.4064 94.9582C18.1402 94.4447 17.9133 93.8923 17.6962 93.3788C17.5975 93.1815 17.5975 92.8857 17.4299 92.787C17.1836 93.1519 16.8188 93.458 16.6414 93.902C16.3256 94.6128 16.2965 95.4814 16.178 96.389C15.5862 96.2903 15.4089 95.7477 15.2116 95.2837C14.7185 94.1192 14.6398 92.2245 15.064 90.8918C15.182 90.5464 15.6751 89.4606 15.4779 89.1351C15.3793 88.8193 15.0538 88.6415 14.8667 88.3947C14.6495 88.0789 14.4231 87.6844 14.275 87.339C13.9893 86.411 13.6934 85.3845 13.2693 84.4668C13.0721 84.0426 12.7271 83.6083 12.441 83.2133C12.1354 82.7596 11.7904 82.4438 11.5441 81.9303C11.4552 81.733 11.3469 81.4371 11.4751 81.2394C11.5043 81.1112 11.5733 81.0621 11.7015 81.0222C11.9187 80.8449 12.5202 81.0718 12.7368 81.1704C13.348 81.4172 13.8513 81.6441 14.3639 81.9895C14.5908 82.1571 14.8371 82.4632 15.1329 82.5521H15.4779C16.0006 82.6707 16.5919 82.5818 17.085 82.7299C17.9527 83.0064 18.7417 83.4208 19.4515 83.8648C19.9932 84.2102 20.5096 84.5902 21.0008 85.0041C21.4924 85.418 21.9544 85.8625 22.3873 86.3372C22.8202 86.8123 23.22 87.3137 23.5868 87.8413C23.9536 88.3694 24.284 88.9189 24.5784 89.4902C24.7756 89.8653 24.8544 90.2107 25.0419 90.6057L26.1559 93.0236C26.5008 93.7937 26.8263 94.5831 27.3194 95.2244C27.5658 95.5699 28.552 95.7477 28.9955 95.9352C29.321 96.0834 29.8336 96.2116 30.1295 96.3992L31.7759 97.5141C32.0422 97.7119 32.7617 98.1263 32.9099 98.4518L32.9196 98.4717Z" fill="#00678C"/>
<path fill-rule="evenodd" clip-rule="evenodd" d="M16.1582 84.1709C15.8823 84.1709 15.685 84.2005 15.4878 84.2496V84.2792H15.5174C15.6457 84.546 15.8823 84.7233 16.0402 84.9507L16.4148 85.7401L16.4444 85.7105C16.6713 85.5424 16.7893 85.2859 16.7893 84.8914C16.6907 84.7728 16.6713 84.664 16.5921 84.546C16.4935 84.3779 16.2768 84.2992 16.1485 84.1709H16.1582Z" fill="#00678C"/>
<path fill-rule="evenodd" clip-rule="evenodd" d="M103.357 102.756H117.496C119.153 102.756 120.73 102.42 122.012 101.819C124.151 100.831 125.167 99.5186 125.167 97.7915V94.1794C125.167 92.7977 124.003 91.465 121.677 90.5672C120.327 90.0877 118.937 89.8511 117.506 89.8565H111.57C109.579 89.8565 108.642 89.2642 108.376 87.9418C108.336 87.7936 108.336 87.6459 108.336 87.4876V85.2673C108.336 85.1488 108.336 85.0006 108.376 84.8524C108.642 83.8361 109.165 83.5694 110.9 83.3721H125.374V80.0957H111.6C109.608 80.0957 108.544 80.2138 107.617 80.5101C104.718 81.3982 103.446 82.8392 103.446 85.366V88.228C103.446 90.4487 105.93 92.3337 110.151 92.768C110.604 92.8074 111.087 92.8074 111.58 92.8074H116.658C116.855 92.8074 117.032 92.8074 117.181 92.8467C118.719 92.9949 119.399 93.2616 119.843 93.8339C120.138 94.1298 120.217 94.3965 120.217 94.7419V97.604C120.217 97.9397 119.991 98.3934 119.527 98.7685C119.064 99.1435 118.364 99.4103 117.417 99.4593C117.22 99.4593 117.121 99.4992 116.924 99.4992H103.357V102.756ZM155.761 97.071C155.761 100.427 158.286 102.302 163.324 102.677L164.753 102.756H177.532V99.4992H164.645C161.687 99.4992 160.701 98.7884 160.701 97.0516V80.1054H155.771V97.0812L155.761 97.071ZM128.282 97.2192V85.5632C128.282 82.6026 130.383 80.7865 134.494 80.2337L135.805 80.155H145.133C145.625 80.155 146.04 80.1943 146.513 80.2337C150.615 80.7963 152.675 82.6026 152.675 85.5632V97.2289C152.675 99.6371 151.808 100.92 149.777 101.769L154.588 106.131H148.909L144.995 102.598L141.051 102.825H135.785C134.918 102.825 133.942 102.727 132.828 102.45C129.712 101.581 128.164 99.9233 128.164 97.2192H128.282ZM133.587 96.9627C133.587 97.1104 133.666 97.2585 133.705 97.4558C133.971 98.8083 135.243 99.5584 137.196 99.5584H141.632L137.57 95.8671H143.249L146.819 99.1042C147.509 98.7291 147.903 98.1962 148.061 97.5253C148.1 97.3771 148.1 97.1895 148.1 97.0317V85.879C148.1 85.7308 148.1 85.5831 148.061 85.4252C147.795 84.1422 146.523 83.4314 144.61 83.4314H137.215C135.046 83.4314 133.606 84.369 133.606 85.879L133.587 96.9627Z" fill="#E89E00"/>
<mask id="mask0_201_411" style="mask-type:luminance" maskUnits="userSpaceOnUse" x="37" y="79" width="63" height="31">
<path d="M37.9934 79.6514H99.6819V109.269H37.9934V79.6514Z" fill="white"/>
</mask>
<g mask="url(#mask0_201_411)">
<path fill-rule="evenodd" clip-rule="evenodd" d="M38.0972 102.775H42.9875V83.3913L50.6189 100.288C51.4866 102.321 52.7288 103.071 55.1347 103.071C57.5405 103.071 58.704 102.321 59.6111 100.288L67.2026 83.3913V102.775H72.1328V83.3913C72.1328 81.516 71.3832 80.608 69.8057 80.1144C66.0886 78.9892 63.5944 79.9667 62.4702 82.4833L54.9768 99.1923L47.7598 82.4833C46.6749 79.9667 44.1511 78.9892 40.3946 80.1144C38.8565 80.608 38.0972 81.4961 38.0972 83.3913V102.775ZM76.1851 87.0034H81.1148V97.6625C81.0754 98.2547 81.312 99.6165 84.0725 99.6563H94.6421V86.9247H99.5723V104.344C99.5723 108.637 94.2676 109.575 91.7831 109.614H76.3031V106.338H91.8321C94.9876 106.002 94.6125 104.423 94.6125 103.89V102.607H84.191C79.34 102.568 76.2244 100.436 76.1851 97.9685V87.0034Z" fill="#00678C"/>
</g>
</svg>
